<?xml version="1.0" encoding="UTF-8" standalone="no"?>
<!DOCTYPE svg PUBLIC "-//W3C//DTD SVG 1.1//EN"
 "http://www.w3.org/Graphics/SVG/1.1/DTD/svg11.dtd">
<!-- Generated by graphviz version 2.39.20160823.1445 (20160823.1445)
 -->
<!-- Title: Workflow Pages: 1 -->
<svg width="546pt" height="532pt"
 viewBox="0.00 0.00 546.00 532.00" xmlns="http://www.w3.org/2000/svg" xmlns:xlink="http://www.w3.org/1999/xlink">
<g id="graph0" class="graph" transform="scale(1 1) rotate(0) translate(4 528)">
<title>Workflow</title>
<polygon fill="white" stroke="transparent" points="-4,4 -4,-528 542,-528 542,4 -4,4"/>
<text text-anchor="middle" x="269" y="-505.6" font-family="Helvetica,sans-Serif" font-size="18.00">OpenRefine2YW</text>
<g id="clust1" class="cluster">
<title>cluster_workflow_box_outer</title>
<polygon fill="none" stroke="black" stroke-width="2" points="8,-62 8,-436 530,-436 530,-62 8,-62"/>
</g>
<g id="clust2" class="cluster">
<title>cluster_workflow_box_inner</title>
<polygon fill="none" stroke="black" stroke-width="0" points="16,-70 16,-428 522,-428 522,-70 16,-70"/>
</g>
<g id="clust3" class="cluster">
<title>cluster_input_ports_group_outer</title>
<polygon fill="none" stroke="black" stroke-width="0" points="246,-444 246,-490 292,-490 292,-444 246,-444"/>
</g>
<g id="clust4" class="cluster">
<title>cluster_input_ports_group_inner</title>
<polygon fill="none" stroke="black" stroke-width="0" points="254,-452 254,-482 284,-482 284,-452 254,-452"/>
</g>
<g id="clust5" class="cluster">
<title>cluster_output_ports_group_outer</title>
<polygon fill="none" stroke="black" stroke-width="0" points="214,-8 214,-54 324,-54 324,-8 214,-8"/>
</g>
<g id="clust6" class="cluster">
<title>cluster_output_ports_group_inner</title>
<polygon fill="none" stroke="black" stroke-width="0" points="222,-16 222,-46 316,-46 316,-16 222,-16"/>
</g>
<!-- import_json -->
<g id="node1" class="node">
<title>import_json</title>
<polygon fill="#ccffcc" stroke="black" points="313.366,-339 224.634,-339 224.634,-303 313.366,-303 313.366,-339"/>
<text text-anchor="middle" x="269" y="-316.8" font-family="Helvetica,sans-Serif" font-size="14.00">import_json</text>
</g>
<!-- raw_json_file -->
<g id="node7" class="node">
<title>raw_json_file</title>
<path fill="#ffffcc" stroke="black" d="M305.71,-267C305.71,-267 232.29,-267 232.29,-267 226.29,-267 220.29,-261 220.29,-255 220.29,-255 220.29,-243 220.29,-243 220.29,-237 226.29,-231 232.29,-231 232.29,-231 305.71,-231 305.71,-231 311.71,-231 317.71,-237 317.71,-243 317.71,-243 317.71,-255 317.71,-255 317.71,-261 311.71,-267 305.71,-267"/>
<text text-anchor="middle" x="269" y="-244.8" font-family="Helvetica,sans-Serif" font-size="14.00">raw_json_file</text>
</g>
<!-- import_json&#45;&gt;raw_json_file -->
<g id="edge1" class="edge">
<title>import_json&#45;&gt;raw_json_file</title>
<path fill="none" stroke="black" d="M269,-302.831C269,-295.131 269,-285.974 269,-277.417"/>
<polygon fill="black" stroke="black" points="272.5,-277.413 269,-267.413 265.5,-277.413 272.5,-277.413"/>
</g>
<!-- extract_operation -->
<g id="node2" class="node">
<title>extract_operation</title>
<polygon fill="#ccffcc" stroke="black" points="24.4116,-150.5 24.4116,-194.5 513.588,-194.5 513.588,-150.5 24.4116,-150.5"/>
<text text-anchor="middle" x="269" y="-179.3" font-family="Helvetica,sans-Serif" font-size="14.00">extract_operation</text>
<polyline fill="none" stroke="black" points="24.4116,-172.5 513.588,-172.5 "/>
<text text-anchor="middle" x="269" y="-157.3" font-family="Helvetica,sans-Serif" font-size="14.00">Output a dictionary to store the operation name, method and target in details</text>
</g>
<!-- operation_name -->
<g id="node3" class="node">
<title>operation_name</title>
<path fill="#ffffcc" stroke="black" d="M153.686,-114C153.686,-114 60.3143,-114 60.3143,-114 54.3143,-114 48.3143,-108 48.3143,-102 48.3143,-102 48.3143,-90 48.3143,-90 48.3143,-84 54.3143,-78 60.3143,-78 60.3143,-78 153.686,-78 153.686,-78 159.686,-78 165.686,-84 165.686,-90 165.686,-90 165.686,-102 165.686,-102 165.686,-108 159.686,-114 153.686,-114"/>
<text text-anchor="middle" x="107" y="-91.8" font-family="Helvetica,sans-Serif" font-size="14.00">operation_name</text>
</g>
<!-- extract_operation&#45;&gt;operation_name -->
<g id="edge3" class="edge">
<title>extract_operation&#45;&gt;operation_name</title>
<path fill="none" stroke="black" d="M222.143,-150.373C200.897,-140.34 175.816,-128.496 154.494,-118.428"/>
<polygon fill="black" stroke="black" points="155.837,-115.192 145.3,-114.086 152.848,-121.521 155.837,-115.192"/>
</g>
<!-- operation_method_name -->
<g id="node4" class="node">
<title>operation_method_name</title>
<path fill="#ffffcc" stroke="black" d="M342.668,-114C342.668,-114 195.332,-114 195.332,-114 189.332,-114 183.332,-108 183.332,-102 183.332,-102 183.332,-90 183.332,-90 183.332,-84 189.332,-78 195.332,-78 195.332,-78 342.668,-78 342.668,-78 348.668,-78 354.668,-84 354.668,-90 354.668,-90 354.668,-102 354.668,-102 354.668,-108 348.668,-114 342.668,-114"/>
<text text-anchor="middle" x="269" y="-91.8" font-family="Helvetica,sans-Serif" font-size="14.00">operation_method_name</text>
</g>
<!-- extract_operation&#45;&gt;operation_method_name -->
<g id="edge4" class="edge">
<title>extract_operation&#45;&gt;operation_method_name</title>
<path fill="none" stroke="black" d="M269,-150.373C269,-142.216 269,-132.862 269,-124.239"/>
<polygon fill="black" stroke="black" points="272.5,-124.211 269,-114.211 265.5,-124.211 272.5,-124.211"/>
</g>
<!-- operation_target -->
<g id="node5" class="node">
<title>operation_target</title>
<path fill="#ffffcc" stroke="black" d="M478.965,-114C478.965,-114 385.035,-114 385.035,-114 379.035,-114 373.035,-108 373.035,-102 373.035,-102 373.035,-90 373.035,-90 373.035,-84 379.035,-78 385.035,-78 385.035,-78 478.965,-78 478.965,-78 484.965,-78 490.965,-84 490.965,-90 490.965,-90 490.965,-102 490.965,-102 490.965,-108 484.965,-114 478.965,-114"/>
<text text-anchor="middle" x="432" y="-91.8" font-family="Helvetica,sans-Serif" font-size="14.00">operation_target</text>
</g>
<!-- extract_operation&#45;&gt;operation_target -->
<g id="edge5" class="edge">
<title>extract_operation&#45;&gt;operation_target</title>
<path fill="none" stroke="black" d="M316.146,-150.373C337.523,-140.34 362.759,-128.496 384.213,-118.428"/>
<polygon fill="black" stroke="black" points="385.898,-121.503 393.463,-114.086 382.924,-115.167 385.898,-121.503"/>
</g>
<!-- operation_name_output_port -->
<g id="node9" class="node">
<title>operation_name_output_port</title>
<ellipse fill="#ffffff" stroke="black" cx="237" cy="-31" rx="7" ry="7"/>
</g>
<!-- operation_name&#45;&gt;operation_name_output_port -->
<g id="edge8" class="edge">
<title>operation_name&#45;&gt;operation_name_output_port</title>
<path fill="none" stroke="black" d="M142.426,-77.9202C152.606,-72.7524 163.732,-67.1313 174,-62 190.015,-53.9964 208.391,-44.9725 221.147,-38.7335"/>
<polygon fill="black" stroke="black" points="222.916,-41.7649 230.365,-34.2313 219.844,-35.475 222.916,-41.7649"/>
</g>
<!-- operation_method_name_output_port -->
<g id="node10" class="node">
<title>operation_method_name_output_port</title>
<ellipse fill="#ffffff" stroke="black" cx="269" cy="-31" rx="7" ry="7"/>
</g>
<!-- operation_method_name&#45;&gt;operation_method_name_output_port -->
<g id="edge9" class="edge">
<title>operation_method_name&#45;&gt;operation_method_name_output_port</title>
<path fill="none" stroke="black" d="M269,-77.8939C269,-68.5967 269,-57.3301 269,-48.1707"/>
<polygon fill="black" stroke="black" points="272.5,-48.0024 269,-38.0024 265.5,-48.0025 272.5,-48.0024"/>
</g>
<!-- operation_target_output_port -->
<g id="node11" class="node">
<title>operation_target_output_port</title>
<ellipse fill="#ffffff" stroke="black" cx="301" cy="-31" rx="7" ry="7"/>
</g>
<!-- operation_target&#45;&gt;operation_target_output_port -->
<g id="edge10" class="edge">
<title>operation_target&#45;&gt;operation_target_output_port</title>
<path fill="none" stroke="black" d="M396.025,-77.9591C385.692,-72.7918 374.405,-67.1613 364,-62 347.961,-54.0441 329.588,-45.0132 316.84,-38.7595"/>
<polygon fill="black" stroke="black" points="318.148,-35.5029 307.628,-34.2442 315.067,-41.7885 318.148,-35.5029"/>
</g>
<!-- json_path -->
<g id="node6" class="node">
<title>json_path</title>
<path fill="#ffffcc" stroke="black" d="M233.697,-375.5C233.697,-375.5 304.303,-375.5 304.303,-375.5 310.303,-375.5 316.303,-381.5 316.303,-387.5 316.303,-387.5 316.303,-407.5 316.303,-407.5 316.303,-413.5 310.303,-419.5 304.303,-419.5 304.303,-419.5 233.697,-419.5 233.697,-419.5 227.697,-419.5 221.697,-413.5 221.697,-407.5 221.697,-407.5 221.697,-387.5 221.697,-387.5 221.697,-381.5 227.697,-375.5 233.697,-375.5"/>
<text text-anchor="middle" x="269" y="-404.3" font-family="Helvetica,sans-Serif" font-size="14.00">json_path</text>
<polyline fill="none" stroke="black" points="221.697,-397.5 316.303,-397.5 "/>
<text text-anchor="middle" x="269" y="-382.3" font-family="Helvetica,sans-Serif" font-size="14.00">file:data.json</text>
</g>
<!-- json_path&#45;&gt;import_json -->
<g id="edge2" class="edge">
<title>json_path&#45;&gt;import_json</title>
<path fill="none" stroke="black" d="M269,-375.373C269,-367.216 269,-357.862 269,-349.239"/>
<polygon fill="black" stroke="black" points="272.5,-349.211 269,-339.211 265.5,-349.211 272.5,-349.211"/>
</g>
<!-- raw_json_file&#45;&gt;extract_operation -->
<g id="edge6" class="edge">
<title>raw_json_file&#45;&gt;extract_operation</title>
<path fill="none" stroke="black" d="M269,-230.871C269,-223.058 269,-213.681 269,-204.75"/>
<polygon fill="black" stroke="black" points="272.5,-204.593 269,-194.593 265.5,-204.593 272.5,-204.593"/>
</g>
<!-- json_path_input_port -->
<g id="node8" class="node">
<title>json_path_input_port</title>
<ellipse fill="#ffffff" stroke="black" cx="269" cy="-467" rx="7" ry="7"/>
</g>
<!-- json_path_input_port&#45;&gt;json_path -->
<g id="edge7" class="edge">
<title>json_path_input_port&#45;&gt;json_path</title>
<path fill="none" stroke="black" d="M269,-459.824C269,-452.602 269,-440.944 269,-429.653"/>
<polygon fill="black" stroke="black" points="272.5,-429.526 269,-419.526 265.5,-429.526 272.5,-429.526"/>
</g>
</g>
</svg>
