<?xml version="1.0" encoding="UTF-8" standalone="no"?>
<!DOCTYPE svg PUBLIC "-//W3C//DTD SVG 1.1//EN"
 "http://www.w3.org/Graphics/SVG/1.1/DTD/svg11.dtd">
<!-- Generated by graphviz version 2.39.20160823.1445 (20160823.1445)
 -->
<!-- Title: yw_data_view Pages: 1 -->
<svg width="499pt" height="316pt"
 viewBox="0.00 0.00 499.00 316.00" xmlns="http://www.w3.org/2000/svg" xmlns:xlink="http://www.w3.org/1999/xlink">
<g id="graph0" class="graph" transform="scale(1 1) rotate(0) translate(4 312)">
<title>yw_data_view</title>
<polygon fill="white" stroke="transparent" points="-4,4 -4,-312 495,-312 495,4 -4,4"/>
<text text-anchor="middle" x="245.5" y="-289.6" font-family="Courier,monospace" font-size="18.00">OpenRefine2YW</text>
<g id="clust1" class="cluster">
<title>cluster_workflow</title>
<polygon fill="none" stroke="black" stroke-width="2" points="8,-62 8,-274 483,-274 483,-62 8,-62"/>
</g>
<g id="clust2" class="cluster">
<title>cluster_workflow_inner</title>
<polygon fill="none" stroke="white" stroke-width="2" points="16,-70 16,-266 475,-266 475,-70 16,-70"/>
</g>
<g id="clust5" class="cluster">
<title>cluster_outflows</title>
<polygon fill="none" stroke="white" stroke-width="2" points="190,-8 190,-54 300,-54 300,-8 190,-8"/>
</g>
<g id="clust6" class="cluster">
<title>cluster_outflows_inner</title>
<polygon fill="none" stroke="white" stroke-width="2" points="198,-16 198,-46 292,-46 292,-16 198,-16"/>
</g>
<!-- extract_operation -->
<g id="node1" class="node">
<title>extract_operation</title>
<polygon fill="#ccffcc" stroke="black" points="324.323,-186 165.677,-186 165.677,-150 324.323,-150 324.323,-186"/>
<text text-anchor="middle" x="245" y="-163.8" font-family="Courier,monospace" font-size="14.00">extract_operation</text>
</g>
<!-- operation_name -->
<g id="node3" class="node">
<title>operation_name</title>
<path fill="#ffffcc" stroke="black" d="M129.686,-114C129.686,-114 36.3143,-114 36.3143,-114 30.3143,-114 24.3143,-108 24.3143,-102 24.3143,-102 24.3143,-90 24.3143,-90 24.3143,-84 30.3143,-78 36.3143,-78 36.3143,-78 129.686,-78 129.686,-78 135.686,-78 141.686,-84 141.686,-90 141.686,-90 141.686,-102 141.686,-102 141.686,-108 135.686,-114 129.686,-114"/>
<text text-anchor="middle" x="83" y="-91.8" font-family="Helvetica,sans-Serif" font-size="14.00">operation_name</text>
</g>
<!-- extract_operation&#45;&gt;operation_name -->
<g id="edge3" class="edge">
<title>extract_operation&#45;&gt;operation_name</title>
<path fill="none" stroke="black" d="M204.121,-149.831C182.454,-140.202 155.664,-128.295 132.792,-118.13"/>
<polygon fill="black" stroke="black" points="134.145,-114.901 123.585,-114.038 131.302,-121.298 134.145,-114.901"/>
</g>
<!-- operation_method_name -->
<g id="node4" class="node">
<title>operation_method_name</title>
<path fill="#ffffcc" stroke="black" d="M318.668,-114C318.668,-114 171.332,-114 171.332,-114 165.332,-114 159.332,-108 159.332,-102 159.332,-102 159.332,-90 159.332,-90 159.332,-84 165.332,-78 171.332,-78 171.332,-78 318.668,-78 318.668,-78 324.668,-78 330.668,-84 330.668,-90 330.668,-90 330.668,-102 330.668,-102 330.668,-108 324.668,-114 318.668,-114"/>
<text text-anchor="middle" x="245" y="-91.8" font-family="Helvetica,sans-Serif" font-size="14.00">operation_method_name</text>
</g>
<!-- extract_operation&#45;&gt;operation_method_name -->
<g id="edge2" class="edge">
<title>extract_operation&#45;&gt;operation_method_name</title>
<path fill="none" stroke="black" d="M245,-149.831C245,-142.131 245,-132.974 245,-124.417"/>
<polygon fill="black" stroke="black" points="248.5,-124.413 245,-114.413 241.5,-124.413 248.5,-124.413"/>
</g>
<!-- operation_target -->
<g id="node5" class="node">
<title>operation_target</title>
<path fill="#ffffcc" stroke="black" d="M454.965,-114C454.965,-114 361.035,-114 361.035,-114 355.035,-114 349.035,-108 349.035,-102 349.035,-102 349.035,-90 349.035,-90 349.035,-84 355.035,-78 361.035,-78 361.035,-78 454.965,-78 454.965,-78 460.965,-78 466.965,-84 466.965,-90 466.965,-90 466.965,-102 466.965,-102 466.965,-108 460.965,-114 454.965,-114"/>
<text text-anchor="middle" x="408" y="-91.8" font-family="Helvetica,sans-Serif" font-size="14.00">operation_target</text>
</g>
<!-- extract_operation&#45;&gt;operation_target -->
<g id="edge1" class="edge">
<title>extract_operation&#45;&gt;operation_target</title>
<path fill="none" stroke="black" d="M286.132,-149.831C307.932,-140.202 334.888,-128.295 357.9,-118.13"/>
<polygon fill="black" stroke="black" points="359.431,-121.28 367.164,-114.038 356.602,-114.877 359.431,-121.28"/>
</g>
<!-- raw_json_file -->
<g id="node2" class="node">
<title>raw_json_file</title>
<path fill="#ffffcc" stroke="black" d="M281.71,-258C281.71,-258 208.29,-258 208.29,-258 202.29,-258 196.29,-252 196.29,-246 196.29,-246 196.29,-234 196.29,-234 196.29,-228 202.29,-222 208.29,-222 208.29,-222 281.71,-222 281.71,-222 287.71,-222 293.71,-228 293.71,-234 293.71,-234 293.71,-246 293.71,-246 293.71,-252 287.71,-258 281.71,-258"/>
<text text-anchor="middle" x="245" y="-235.8" font-family="Helvetica,sans-Serif" font-size="14.00">raw_json_file</text>
</g>
<!-- raw_json_file&#45;&gt;extract_operation -->
<g id="edge4" class="edge">
<title>raw_json_file&#45;&gt;extract_operation</title>
<path fill="none" stroke="black" d="M245,-221.831C245,-214.131 245,-204.974 245,-196.417"/>
<polygon fill="black" stroke="black" points="248.5,-196.413 245,-186.413 241.5,-196.413 248.5,-196.413"/>
</g>
<!-- operation_name_outflow -->
<g id="node8" class="node">
<title>operation_name_outflow</title>
<ellipse fill="none" stroke="black" cx="213" cy="-31" rx="7" ry="7"/>
</g>
<!-- operation_name&#45;&gt;operation_name_outflow -->
<g id="edge7" class="edge">
<title>operation_name&#45;&gt;operation_name_outflow</title>
<path fill="none" stroke="black" d="M118.426,-77.9202C128.606,-72.7524 139.732,-67.1313 150,-62 166.015,-53.9964 184.391,-44.9725 197.147,-38.7335"/>
<polygon fill="black" stroke="black" points="198.916,-41.7649 206.365,-34.2313 195.844,-35.475 198.916,-41.7649"/>
</g>
<!-- operation_method_name_outflow -->
<g id="node7" class="node">
<title>operation_method_name_outflow</title>
<ellipse fill="none" stroke="black" cx="245" cy="-31" rx="7" ry="7"/>
</g>
<!-- operation_method_name&#45;&gt;operation_method_name_outflow -->
<g id="edge6" class="edge">
<title>operation_method_name&#45;&gt;operation_method_name_outflow</title>
<path fill="none" stroke="black" d="M245,-77.8939C245,-68.5967 245,-57.3301 245,-48.1707"/>
<polygon fill="black" stroke="black" points="248.5,-48.0024 245,-38.0024 241.5,-48.0025 248.5,-48.0024"/>
</g>
<!-- operation_target_outflow -->
<g id="node6" class="node">
<title>operation_target_outflow</title>
<ellipse fill="none" stroke="black" cx="277" cy="-31" rx="7" ry="7"/>
</g>
<!-- operation_target&#45;&gt;operation_target_outflow -->
<g id="edge5" class="edge">
<title>operation_target&#45;&gt;operation_target_outflow</title>
<path fill="none" stroke="black" d="M372.025,-77.9591C361.692,-72.7918 350.405,-67.1613 340,-62 323.961,-54.0441 305.588,-45.0132 292.84,-38.7595"/>
<polygon fill="black" stroke="black" points="294.148,-35.5029 283.628,-34.2442 291.067,-41.7885 294.148,-35.5029"/>
</g>
</g>
</svg>
