<?xml version="1.0" encoding="UTF-8" standalone="no"?>
<!DOCTYPE svg PUBLIC "-//W3C//DTD SVG 1.1//EN"
 "http://www.w3.org/Graphics/SVG/1.1/DTD/svg11.dtd">
<!-- Generated by graphviz version 2.39.20160823.1445 (20160823.1445)
 -->
<!-- Title: yw_data_view Pages: 1 -->
<svg width="416pt" height="516pt"
 viewBox="0.00 0.00 416.00 516.00" xmlns="http://www.w3.org/2000/svg" xmlns:xlink="http://www.w3.org/1999/xlink">
<g id="graph0" class="graph" transform="scale(1 1) rotate(0) translate(4 512)">
<title>yw_data_view</title>
<polygon fill="white" stroke="transparent" points="-4,4 -4,-512 412,-512 412,4 -4,4"/>
<text text-anchor="middle" x="204" y="-489.6" font-family="Courier,monospace" font-size="18.00">OpenRefine2YW</text>
<g id="clust1" class="cluster">
<title>cluster_workflow</title>
<polygon fill="none" stroke="black" stroke-width="2" points="8,-62 8,-420 400,-420 400,-62 8,-62"/>
</g>
<g id="clust2" class="cluster">
<title>cluster_workflow_inner</title>
<polygon fill="none" stroke="white" stroke-width="2" points="16,-70 16,-412 392,-412 392,-70 16,-70"/>
</g>
<g id="clust3" class="cluster">
<title>cluster_inflows</title>
<polygon fill="none" stroke="white" stroke-width="2" points="176,-428 176,-474 222,-474 222,-428 176,-428"/>
</g>
<g id="clust4" class="cluster">
<title>cluster_inflows_inner</title>
<polygon fill="none" stroke="white" stroke-width="2" points="184,-436 184,-466 214,-466 214,-436 184,-436"/>
</g>
<g id="clust5" class="cluster">
<title>cluster_outflows</title>
<polygon fill="none" stroke="white" stroke-width="2" points="144,-8 144,-54 254,-54 254,-8 144,-8"/>
</g>
<g id="clust6" class="cluster">
<title>cluster_outflows_inner</title>
<polygon fill="none" stroke="white" stroke-width="2" points="152,-16 152,-46 246,-46 246,-16 152,-16"/>
</g>
<!-- import_json -->
<g id="node1" class="node">
<title>import_json</title>
<polygon fill="#ccffcc" stroke="black" points="253.416,-331 144.584,-331 144.584,-295 253.416,-295 253.416,-331"/>
<text text-anchor="middle" x="199" y="-308.8" font-family="Courier,monospace" font-size="14.00">import_json</text>
</g>
<!-- raw_json_file -->
<g id="node4" class="node">
<title>raw_json_file</title>
<path fill="#ffffcc" stroke="black" d="M221.029,-259C221.029,-259 176.971,-259 176.971,-259 170.971,-259 164.971,-253 164.971,-247 164.971,-247 164.971,-235 164.971,-235 164.971,-229 170.971,-223 176.971,-223 176.971,-223 221.029,-223 221.029,-223 227.029,-223 233.029,-229 233.029,-235 233.029,-235 233.029,-247 233.029,-247 233.029,-253 227.029,-259 221.029,-259"/>
<text text-anchor="middle" x="199" y="-238.3" font-family="Helvetica,sans-Serif" font-size="9.00">raw_json_file</text>
</g>
<!-- import_json&#45;&gt;raw_json_file -->
<g id="edge3" class="edge">
<title>import_json&#45;&gt;raw_json_file</title>
<path fill="none" stroke="black" d="M199,-294.831C199,-287.131 199,-277.974 199,-269.417"/>
<polygon fill="black" stroke="black" points="202.5,-269.413 199,-259.413 195.5,-269.413 202.5,-269.413"/>
</g>
<!-- extract_operation -->
<g id="node2" class="node">
<title>extract_operation</title>
<polygon fill="#ccffcc" stroke="black" points="278.323,-187 119.677,-187 119.677,-151 278.323,-151 278.323,-187"/>
<text text-anchor="middle" x="199" y="-164.8" font-family="Courier,monospace" font-size="14.00">extract_operation</text>
</g>
<!-- operation_name -->
<g id="node5" class="node">
<title>operation_name</title>
<path fill="#ffe4b5" stroke="black" d="M36.1938,-78.5C36.1938,-78.5 103.806,-78.5 103.806,-78.5 109.806,-78.5 115.806,-84.5 115.806,-90.5 115.806,-90.5 115.806,-102.5 115.806,-102.5 115.806,-108.5 109.806,-114.5 103.806,-114.5 103.806,-114.5 36.1938,-114.5 36.1938,-114.5 30.1938,-114.5 24.1938,-108.5 24.1938,-102.5 24.1938,-102.5 24.1938,-90.5 24.1938,-90.5 24.1938,-84.5 30.1938,-78.5 36.1938,-78.5"/>
<text text-anchor="middle" x="70" y="-102.8" font-family="Courier,monospace" font-weight="bold" font-size="9.00">operation_name</text>
<polyline fill="none" stroke="black" points="24.1938,-96.5 115.806,-96.5 "/>
<text text-anchor="middle" x="70" y="-84.8" font-family="Courier,monospace" font-weight="bold" font-size="9.00"> </text>
</g>
<!-- extract_operation&#45;&gt;operation_name -->
<g id="edge4" class="edge">
<title>extract_operation&#45;&gt;operation_name</title>
<path fill="none" stroke="black" d="M166.781,-150.892C150.004,-141.463 129.301,-129.828 111.354,-119.742"/>
<polygon fill="black" stroke="black" points="112.688,-116.477 102.256,-114.628 109.258,-122.579 112.688,-116.477"/>
</g>
<!-- operation_method_name -->
<g id="node6" class="node">
<title>operation_method_name</title>
<path fill="#ffe4b5" stroke="black" d="M146.291,-78.5C146.291,-78.5 251.709,-78.5 251.709,-78.5 257.709,-78.5 263.709,-84.5 263.709,-90.5 263.709,-90.5 263.709,-102.5 263.709,-102.5 263.709,-108.5 257.709,-114.5 251.709,-114.5 251.709,-114.5 146.291,-114.5 146.291,-114.5 140.291,-114.5 134.291,-108.5 134.291,-102.5 134.291,-102.5 134.291,-90.5 134.291,-90.5 134.291,-84.5 140.291,-78.5 146.291,-78.5"/>
<text text-anchor="middle" x="199" y="-102.8" font-family="Courier,monospace" font-weight="bold" font-size="9.00">operation_method_name</text>
<polyline fill="none" stroke="black" points="134.291,-96.5 263.709,-96.5 "/>
<text text-anchor="middle" x="199" y="-84.8" font-family="Courier,monospace" font-weight="bold" font-size="9.00"> </text>
</g>
<!-- extract_operation&#45;&gt;operation_method_name -->
<g id="edge5" class="edge">
<title>extract_operation&#45;&gt;operation_method_name</title>
<path fill="none" stroke="black" d="M199,-150.705C199,-142.832 199,-133.447 199,-124.717"/>
<polygon fill="black" stroke="black" points="202.5,-124.538 199,-114.538 195.5,-124.538 202.5,-124.538"/>
</g>
<!-- operation_target -->
<g id="node7" class="node">
<title>operation_target</title>
<path fill="#ffe4b5" stroke="black" d="M293.793,-78.5C293.793,-78.5 372.207,-78.5 372.207,-78.5 378.207,-78.5 384.207,-84.5 384.207,-90.5 384.207,-90.5 384.207,-102.5 384.207,-102.5 384.207,-108.5 378.207,-114.5 372.207,-114.5 372.207,-114.5 293.793,-114.5 293.793,-114.5 287.793,-114.5 281.793,-108.5 281.793,-102.5 281.793,-102.5 281.793,-90.5 281.793,-90.5 281.793,-84.5 287.793,-78.5 293.793,-78.5"/>
<text text-anchor="middle" x="333" y="-102.8" font-family="Courier,monospace" font-weight="bold" font-size="9.00">operation_target</text>
<polyline fill="none" stroke="black" points="281.793,-96.5 384.207,-96.5 "/>
<text text-anchor="middle" x="333" y="-84.8" font-family="Courier,monospace" font-weight="bold" font-size="9.00"> </text>
</g>
<!-- extract_operation&#45;&gt;operation_target -->
<g id="edge6" class="edge">
<title>extract_operation&#45;&gt;operation_target</title>
<path fill="none" stroke="black" d="M232.468,-150.892C250.055,-141.377 271.796,-129.614 290.555,-119.464"/>
<polygon fill="black" stroke="black" points="292.364,-122.465 299.494,-114.628 289.033,-116.309 292.364,-122.465"/>
</g>
<!-- json_path -->
<g id="node3" class="node">
<title>json_path</title>
<path fill="#ffe4b5" stroke="black" d="M178.696,-367.5C178.696,-367.5 219.304,-367.5 219.304,-367.5 225.304,-367.5 231.304,-373.5 231.304,-379.5 231.304,-379.5 231.304,-391.5 231.304,-391.5 231.304,-397.5 225.304,-403.5 219.304,-403.5 219.304,-403.5 178.696,-403.5 178.696,-403.5 172.696,-403.5 166.696,-397.5 166.696,-391.5 166.696,-391.5 166.696,-379.5 166.696,-379.5 166.696,-373.5 172.696,-367.5 178.696,-367.5"/>
<text text-anchor="middle" x="199" y="-391.8" font-family="Courier,monospace" font-weight="bold" font-size="9.00">json_path</text>
<polyline fill="none" stroke="black" points="166.696,-385.5 231.304,-385.5 "/>
<text text-anchor="start" x="174.696" y="-373.8" font-family="Courier,monospace" font-weight="bold" font-size="9.00">data.json</text>
</g>
<!-- json_path&#45;&gt;import_json -->
<g id="edge1" class="edge">
<title>json_path&#45;&gt;import_json</title>
<path fill="none" stroke="black" d="M199,-367.205C199,-359.332 199,-349.947 199,-341.217"/>
<polygon fill="black" stroke="black" points="202.5,-341.038 199,-331.038 195.5,-341.038 202.5,-341.038"/>
</g>
<!-- raw_json_file&#45;&gt;extract_operation -->
<g id="edge2" class="edge">
<title>raw_json_file&#45;&gt;extract_operation</title>
<path fill="none" stroke="black" d="M199,-222.831C199,-215.131 199,-205.974 199,-197.417"/>
<polygon fill="black" stroke="black" points="202.5,-197.413 199,-187.413 195.5,-197.413 202.5,-197.413"/>
</g>
<!-- operation_name_outflow -->
<g id="node11" class="node">
<title>operation_name_outflow</title>
<ellipse fill="none" stroke="black" cx="167" cy="-31" rx="7" ry="7"/>
</g>
<!-- operation_name&#45;&gt;operation_name_outflow -->
<g id="edge10" class="edge">
<title>operation_name&#45;&gt;operation_name_outflow</title>
<path fill="none" stroke="black" d="M96.7624,-78.4284C114.795,-66.252 137.882,-50.6623 152.561,-40.7498"/>
<polygon fill="black" stroke="black" points="154.527,-43.6454 160.856,-35.1486 150.61,-37.8442 154.527,-43.6454"/>
</g>
<!-- operation_method_name_outflow -->
<g id="node10" class="node">
<title>operation_method_name_outflow</title>
<ellipse fill="none" stroke="black" cx="199" cy="-31" rx="7" ry="7"/>
</g>
<!-- operation_method_name&#45;&gt;operation_method_name_outflow -->
<g id="edge9" class="edge">
<title>operation_method_name&#45;&gt;operation_method_name_outflow</title>
<path fill="none" stroke="black" d="M199,-78.2546C199,-68.8859 199,-57.5326 199,-48.3027"/>
<polygon fill="black" stroke="black" points="202.5,-48.0563 199,-38.0563 195.5,-48.0563 202.5,-48.0563"/>
</g>
<!-- operation_target_outflow -->
<g id="node9" class="node">
<title>operation_target_outflow</title>
<ellipse fill="none" stroke="black" cx="231" cy="-31" rx="7" ry="7"/>
</g>
<!-- operation_target&#45;&gt;operation_target_outflow -->
<g id="edge8" class="edge">
<title>operation_target&#45;&gt;operation_target_outflow</title>
<path fill="none" stroke="black" d="M304.858,-78.4284C285.703,-66.1278 261.123,-50.3438 245.713,-40.4481"/>
<polygon fill="black" stroke="black" points="247.365,-37.3497 237.06,-34.8913 243.583,-43.2398 247.365,-37.3497"/>
</g>
<!-- json_path_inflow -->
<g id="node8" class="node">
<title>json_path_inflow</title>
<ellipse fill="none" stroke="black" cx="199" cy="-451" rx="7" ry="7"/>
</g>
<!-- json_path_inflow&#45;&gt;json_path -->
<g id="edge7" class="edge">
<title>json_path_inflow&#45;&gt;json_path</title>
<path fill="none" stroke="black" d="M199,-443.99C199,-436.738 199,-424.935 199,-413.824"/>
<polygon fill="black" stroke="black" points="202.5,-413.555 199,-403.555 195.5,-413.555 202.5,-413.555"/>
</g>
</g>
</svg>
