<?xml version="1.0" encoding="UTF-8" standalone="no"?>
<!DOCTYPE svg PUBLIC "-//W3C//DTD SVG 1.1//EN"
 "http://www.w3.org/Graphics/SVG/1.1/DTD/svg11.dtd">
<!-- Generated by graphviz version 2.39.20160823.1445 (20160823.1445)
 -->
<!-- Title: yw_data_view Pages: 1 -->
<svg width="214pt" height="516pt"
 viewBox="0.00 0.00 214.00 516.00" xmlns="http://www.w3.org/2000/svg" xmlns:xlink="http://www.w3.org/1999/xlink">
<g id="graph0" class="graph" transform="scale(1 1) rotate(0) translate(4 512)">
<title>yw_data_view</title>
<polygon fill="white" stroke="transparent" points="-4,4 -4,-512 210,-512 210,4 -4,4"/>
<text text-anchor="middle" x="103" y="-489.6" font-family="Courier,monospace" font-size="18.00">OpenRefine2YW</text>
<g id="clust1" class="cluster">
<title>cluster_workflow</title>
<polygon fill="none" stroke="black" stroke-width="2" points="8,-62 8,-420 198,-420 198,-62 8,-62"/>
</g>
<g id="clust2" class="cluster">
<title>cluster_workflow_inner</title>
<polygon fill="none" stroke="white" stroke-width="2" points="16,-70 16,-412 190,-412 190,-70 16,-70"/>
</g>
<g id="clust3" class="cluster">
<title>cluster_inflows</title>
<polygon fill="none" stroke="white" stroke-width="2" points="80,-428 80,-474 126,-474 126,-428 80,-428"/>
</g>
<g id="clust4" class="cluster">
<title>cluster_inflows_inner</title>
<polygon fill="none" stroke="white" stroke-width="2" points="88,-436 88,-466 118,-466 118,-436 88,-436"/>
</g>
<g id="clust5" class="cluster">
<title>cluster_outflows</title>
<polygon fill="none" stroke="white" stroke-width="2" points="80,-8 80,-54 126,-54 126,-8 80,-8"/>
</g>
<g id="clust6" class="cluster">
<title>cluster_outflows_inner</title>
<polygon fill="none" stroke="white" stroke-width="2" points="88,-16 88,-46 118,-46 118,-16 88,-16"/>
</g>
<!-- import_json -->
<g id="node1" class="node">
<title>import_json</title>
<polygon fill="#ccffcc" stroke="black" points="157.416,-331 48.5842,-331 48.5842,-295 157.416,-295 157.416,-331"/>
<text text-anchor="middle" x="103" y="-308.8" font-family="Courier,monospace" font-size="14.00">import_json</text>
</g>
<!-- raw_json_file -->
<g id="node3" class="node">
<title>raw_json_file</title>
<path fill="#ffffcc" stroke="black" d="M139.71,-259C139.71,-259 66.2896,-259 66.2896,-259 60.2896,-259 54.2896,-253 54.2896,-247 54.2896,-247 54.2896,-235 54.2896,-235 54.2896,-229 60.2896,-223 66.2896,-223 66.2896,-223 139.71,-223 139.71,-223 145.71,-223 151.71,-229 151.71,-235 151.71,-235 151.71,-247 151.71,-247 151.71,-253 145.71,-259 139.71,-259"/>
<text text-anchor="middle" x="103" y="-236.8" font-family="Helvetica,sans-Serif" font-size="14.00">raw_json_file</text>
</g>
<!-- import_json&#45;&gt;raw_json_file -->
<g id="edge3" class="edge">
<title>import_json&#45;&gt;raw_json_file</title>
<path fill="none" stroke="black" d="M103,-294.831C103,-287.131 103,-277.974 103,-269.417"/>
<polygon fill="black" stroke="black" points="106.5,-269.413 103,-259.413 99.5001,-269.413 106.5,-269.413"/>
</g>
<!-- extract_operation -->
<g id="node2" class="node">
<title>extract_operation</title>
<polygon fill="#ccffcc" stroke="black" points="182.323,-187 23.6767,-187 23.6767,-151 182.323,-151 182.323,-187"/>
<text text-anchor="middle" x="103" y="-164.8" font-family="Courier,monospace" font-size="14.00">extract_operation</text>
</g>
<!-- operation_target -->
<g id="node5" class="node">
<title>operation_target</title>
<path fill="#ffe4b5" stroke="black" d="M63.793,-78.5C63.793,-78.5 142.207,-78.5 142.207,-78.5 148.207,-78.5 154.207,-84.5 154.207,-90.5 154.207,-90.5 154.207,-102.5 154.207,-102.5 154.207,-108.5 148.207,-114.5 142.207,-114.5 142.207,-114.5 63.793,-114.5 63.793,-114.5 57.793,-114.5 51.793,-108.5 51.793,-102.5 51.793,-102.5 51.793,-90.5 51.793,-90.5 51.793,-84.5 57.793,-78.5 63.793,-78.5"/>
<text text-anchor="middle" x="103" y="-102.8" font-family="Courier,monospace" font-weight="bold" font-size="9.00">operation_target</text>
<polyline fill="none" stroke="black" points="51.793,-96.5 154.207,-96.5 "/>
<text text-anchor="middle" x="103" y="-84.8" font-family="Courier,monospace" font-weight="bold" font-size="9.00"> </text>
</g>
<!-- extract_operation&#45;&gt;operation_target -->
<g id="edge4" class="edge">
<title>extract_operation&#45;&gt;operation_target</title>
<path fill="none" stroke="black" d="M103,-150.705C103,-142.832 103,-133.447 103,-124.717"/>
<polygon fill="black" stroke="black" points="106.5,-124.538 103,-114.538 99.5001,-124.538 106.5,-124.538"/>
</g>
<!-- raw_json_file&#45;&gt;extract_operation -->
<g id="edge1" class="edge">
<title>raw_json_file&#45;&gt;extract_operation</title>
<path fill="none" stroke="black" d="M103,-222.831C103,-215.131 103,-205.974 103,-197.417"/>
<polygon fill="black" stroke="black" points="106.5,-197.413 103,-187.413 99.5001,-197.413 106.5,-197.413"/>
</g>
<!-- json_path -->
<g id="node4" class="node">
<title>json_path</title>
<path fill="#ffe4b5" stroke="black" d="M82.696,-367.5C82.696,-367.5 123.304,-367.5 123.304,-367.5 129.304,-367.5 135.304,-373.5 135.304,-379.5 135.304,-379.5 135.304,-391.5 135.304,-391.5 135.304,-397.5 129.304,-403.5 123.304,-403.5 123.304,-403.5 82.696,-403.5 82.696,-403.5 76.696,-403.5 70.696,-397.5 70.696,-391.5 70.696,-391.5 70.696,-379.5 70.696,-379.5 70.696,-373.5 76.696,-367.5 82.696,-367.5"/>
<text text-anchor="middle" x="103" y="-391.8" font-family="Courier,monospace" font-weight="bold" font-size="9.00">json_path</text>
<polyline fill="none" stroke="black" points="70.696,-385.5 135.304,-385.5 "/>
<text text-anchor="start" x="78.696" y="-373.8" font-family="Courier,monospace" font-weight="bold" font-size="9.00">data.json</text>
</g>
<!-- json_path&#45;&gt;import_json -->
<g id="edge2" class="edge">
<title>json_path&#45;&gt;import_json</title>
<path fill="none" stroke="black" d="M103,-367.205C103,-359.332 103,-349.947 103,-341.217"/>
<polygon fill="black" stroke="black" points="106.5,-341.038 103,-331.038 99.5001,-341.038 106.5,-341.038"/>
</g>
<!-- operation_target_outflow -->
<g id="node7" class="node">
<title>operation_target_outflow</title>
<ellipse fill="none" stroke="black" cx="103" cy="-31" rx="7" ry="7"/>
</g>
<!-- operation_target&#45;&gt;operation_target_outflow -->
<g id="edge6" class="edge">
<title>operation_target&#45;&gt;operation_target_outflow</title>
<path fill="none" stroke="black" d="M103,-78.2546C103,-68.8859 103,-57.5326 103,-48.3027"/>
<polygon fill="black" stroke="black" points="106.5,-48.0563 103,-38.0563 99.5001,-48.0563 106.5,-48.0563"/>
</g>
<!-- json_path_inflow -->
<g id="node6" class="node">
<title>json_path_inflow</title>
<ellipse fill="none" stroke="black" cx="103" cy="-451" rx="7" ry="7"/>
</g>
<!-- json_path_inflow&#45;&gt;json_path -->
<g id="edge5" class="edge">
<title>json_path_inflow&#45;&gt;json_path</title>
<path fill="none" stroke="black" d="M103,-443.99C103,-436.738 103,-424.935 103,-413.824"/>
<polygon fill="black" stroke="black" points="106.5,-413.555 103,-403.555 99.5001,-413.555 106.5,-413.555"/>
</g>
</g>
</svg>
