<?xml version="1.0" encoding="UTF-8" standalone="no"?>
<!DOCTYPE svg PUBLIC "-//W3C//DTD SVG 1.1//EN"
 "http://www.w3.org/Graphics/SVG/1.1/DTD/svg11.dtd">
<!-- Generated by graphviz version 2.39.20160823.1445 (20160823.1445)
 -->
<!-- Title: yw_data_view Pages: 1 -->
<svg width="228pt" height="514pt"
 viewBox="0.00 0.00 228.00 514.00" xmlns="http://www.w3.org/2000/svg" xmlns:xlink="http://www.w3.org/1999/xlink">
<g id="graph0" class="graph" transform="scale(1 1) rotate(0) translate(4 510)">
<title>yw_data_view</title>
<polygon fill="white" stroke="transparent" points="-4,4 -4,-510 224,-510 224,4 -4,4"/>
<text text-anchor="middle" x="110" y="-487.6" font-family="Courier,monospace" font-size="18.00">OpenRefine2YW</text>
<g id="clust1" class="cluster">
<title>cluster_workflow</title>
<polygon fill="none" stroke="black" stroke-width="2" points="8,-62 8,-418 212,-418 212,-62 8,-62"/>
</g>
<g id="clust2" class="cluster">
<title>cluster_workflow_inner</title>
<polygon fill="none" stroke="white" stroke-width="2" points="16,-70 16,-410 204,-410 204,-70 16,-70"/>
</g>
<g id="clust3" class="cluster">
<title>cluster_inflows</title>
<polygon fill="none" stroke="white" stroke-width="2" points="87,-426 87,-472 133,-472 133,-426 87,-426"/>
</g>
<g id="clust4" class="cluster">
<title>cluster_inflows_inner</title>
<polygon fill="none" stroke="white" stroke-width="2" points="95,-434 95,-464 125,-464 125,-434 95,-434"/>
</g>
<g id="clust5" class="cluster">
<title>cluster_outflows</title>
<polygon fill="none" stroke="white" stroke-width="2" points="87,-8 87,-54 133,-54 133,-8 87,-8"/>
</g>
<g id="clust6" class="cluster">
<title>cluster_outflows_inner</title>
<polygon fill="none" stroke="white" stroke-width="2" points="95,-16 95,-46 125,-46 125,-16 95,-16"/>
</g>
<!-- import_json -->
<g id="node1" class="node">
<title>import_json</title>
<polygon fill="#ccffcc" stroke="black" points="164.416,-330 55.5842,-330 55.5842,-294 164.416,-294 164.416,-330"/>
<text text-anchor="middle" x="110" y="-307.8" font-family="Courier,monospace" font-size="14.00">import_json</text>
</g>
<!-- raw_json_file -->
<g id="node4" class="node">
<title>raw_json_file</title>
<path fill="#ffffcc" stroke="black" d="M146.71,-258C146.71,-258 73.2896,-258 73.2896,-258 67.2896,-258 61.2896,-252 61.2896,-246 61.2896,-246 61.2896,-234 61.2896,-234 61.2896,-228 67.2896,-222 73.2896,-222 73.2896,-222 146.71,-222 146.71,-222 152.71,-222 158.71,-228 158.71,-234 158.71,-234 158.71,-246 158.71,-246 158.71,-252 152.71,-258 146.71,-258"/>
<text text-anchor="middle" x="110" y="-235.8" font-family="Helvetica,sans-Serif" font-size="14.00">raw_json_file</text>
</g>
<!-- import_json&#45;&gt;raw_json_file -->
<g id="edge3" class="edge">
<title>import_json&#45;&gt;raw_json_file</title>
<path fill="none" stroke="black" d="M110,-293.831C110,-286.131 110,-276.974 110,-268.417"/>
<polygon fill="black" stroke="black" points="113.5,-268.413 110,-258.413 106.5,-268.413 113.5,-268.413"/>
</g>
<!-- extract_operation -->
<g id="node2" class="node">
<title>extract_operation</title>
<polygon fill="#ccffcc" stroke="black" points="189.323,-186 30.6767,-186 30.6767,-150 189.323,-150 189.323,-186"/>
<text text-anchor="middle" x="110" y="-163.8" font-family="Courier,monospace" font-size="14.00">extract_operation</text>
</g>
<!-- operation_method_name -->
<g id="node5" class="node">
<title>operation_method_name</title>
<path fill="#ffffcc" stroke="black" d="M183.668,-114C183.668,-114 36.3317,-114 36.3317,-114 30.3317,-114 24.3317,-108 24.3317,-102 24.3317,-102 24.3317,-90 24.3317,-90 24.3317,-84 30.3317,-78 36.3317,-78 36.3317,-78 183.668,-78 183.668,-78 189.668,-78 195.668,-84 195.668,-90 195.668,-90 195.668,-102 195.668,-102 195.668,-108 189.668,-114 183.668,-114"/>
<text text-anchor="middle" x="110" y="-91.8" font-family="Helvetica,sans-Serif" font-size="14.00">operation_method_name</text>
</g>
<!-- extract_operation&#45;&gt;operation_method_name -->
<g id="edge4" class="edge">
<title>extract_operation&#45;&gt;operation_method_name</title>
<path fill="none" stroke="black" d="M110,-149.831C110,-142.131 110,-132.974 110,-124.417"/>
<polygon fill="black" stroke="black" points="113.5,-124.413 110,-114.413 106.5,-124.413 113.5,-124.413"/>
</g>
<!-- json_path -->
<g id="node3" class="node">
<title>json_path</title>
<path fill="#ffffcc" stroke="black" d="M136.217,-402C136.217,-402 83.7827,-402 83.7827,-402 77.7827,-402 71.7827,-396 71.7827,-390 71.7827,-390 71.7827,-378 71.7827,-378 71.7827,-372 77.7827,-366 83.7827,-366 83.7827,-366 136.217,-366 136.217,-366 142.217,-366 148.217,-372 148.217,-378 148.217,-378 148.217,-390 148.217,-390 148.217,-396 142.217,-402 136.217,-402"/>
<text text-anchor="middle" x="110" y="-379.8" font-family="Helvetica,sans-Serif" font-size="14.00">json_path</text>
</g>
<!-- json_path&#45;&gt;import_json -->
<g id="edge2" class="edge">
<title>json_path&#45;&gt;import_json</title>
<path fill="none" stroke="black" d="M110,-365.831C110,-358.131 110,-348.974 110,-340.417"/>
<polygon fill="black" stroke="black" points="113.5,-340.413 110,-330.413 106.5,-340.413 113.5,-340.413"/>
</g>
<!-- raw_json_file&#45;&gt;extract_operation -->
<g id="edge1" class="edge">
<title>raw_json_file&#45;&gt;extract_operation</title>
<path fill="none" stroke="black" d="M110,-221.831C110,-214.131 110,-204.974 110,-196.417"/>
<polygon fill="black" stroke="black" points="113.5,-196.413 110,-186.413 106.5,-196.413 113.5,-196.413"/>
</g>
<!-- operation_method_name_outflow -->
<g id="node7" class="node">
<title>operation_method_name_outflow</title>
<ellipse fill="none" stroke="black" cx="110" cy="-31" rx="7" ry="7"/>
</g>
<!-- operation_method_name&#45;&gt;operation_method_name_outflow -->
<g id="edge6" class="edge">
<title>operation_method_name&#45;&gt;operation_method_name_outflow</title>
<path fill="none" stroke="black" d="M110,-77.8939C110,-68.5967 110,-57.3301 110,-48.1707"/>
<polygon fill="black" stroke="black" points="113.5,-48.0024 110,-38.0024 106.5,-48.0025 113.5,-48.0024"/>
</g>
<!-- json_path_inflow -->
<g id="node6" class="node">
<title>json_path_inflow</title>
<ellipse fill="none" stroke="black" cx="110" cy="-449" rx="7" ry="7"/>
</g>
<!-- json_path_inflow&#45;&gt;json_path -->
<g id="edge5" class="edge">
<title>json_path_inflow&#45;&gt;json_path</title>
<path fill="none" stroke="black" d="M110,-441.796C110,-434.582 110,-423.016 110,-412.12"/>
<polygon fill="black" stroke="black" points="113.5,-412.041 110,-402.041 106.5,-412.041 113.5,-412.041"/>
</g>
</g>
</svg>
