<?xml version="1.0" encoding="UTF-8" standalone="no"?>
<!DOCTYPE svg PUBLIC "-//W3C//DTD SVG 1.1//EN"
 "http://www.w3.org/Graphics/SVG/1.1/DTD/svg11.dtd">
<!-- Generated by graphviz version 2.39.20160823.1445 (20160823.1445)
 -->
<!-- Title: yw_data_view Pages: 1 -->
<svg width="164pt" height="316pt"
 viewBox="0.00 0.00 164.42 316.00" xmlns="http://www.w3.org/2000/svg" xmlns:xlink="http://www.w3.org/1999/xlink">
<g id="graph0" class="graph" transform="scale(1 1) rotate(0) translate(4 312)">
<title>yw_data_view</title>
<polygon fill="white" stroke="transparent" points="-4,4 -4,-312 160.423,-312 160.423,4 -4,4"/>
<text text-anchor="middle" x="78.2114" y="-289.6" font-family="Courier,monospace" font-size="18.00">OpenRefine2YW</text>
<g id="clust1" class="cluster">
<title>cluster_workflow</title>
<polygon fill="none" stroke="black" stroke-width="2" points="8.21143,-8 8.21143,-220 148.211,-220 148.211,-8 8.21143,-8"/>
</g>
<g id="clust2" class="cluster">
<title>cluster_workflow_inner</title>
<polygon fill="none" stroke="white" stroke-width="2" points="16.2114,-16 16.2114,-212 140.211,-212 140.211,-16 16.2114,-16"/>
</g>
<g id="clust3" class="cluster">
<title>cluster_inflows</title>
<polygon fill="none" stroke="white" stroke-width="2" points="55.2114,-228 55.2114,-274 101.211,-274 101.211,-228 55.2114,-228"/>
</g>
<g id="clust4" class="cluster">
<title>cluster_inflows_inner</title>
<polygon fill="none" stroke="white" stroke-width="2" points="63.2114,-236 63.2114,-266 93.2114,-266 93.2114,-236 63.2114,-236"/>
</g>
<!-- import_json -->
<g id="node1" class="node">
<title>import_json</title>
<polygon fill="#ccffcc" stroke="black" points="132.627,-132 23.7956,-132 23.7956,-96 132.627,-96 132.627,-132"/>
<text text-anchor="middle" x="78.2114" y="-109.8" font-family="Courier,monospace" font-size="14.00">import_json</text>
</g>
<!-- raw_json_file -->
<g id="node3" class="node">
<title>raw_json_file</title>
<path fill="#ffffcc" stroke="black" d="M114.922,-60C114.922,-60 41.501,-60 41.501,-60 35.501,-60 29.501,-54 29.501,-48 29.501,-48 29.501,-36 29.501,-36 29.501,-30 35.501,-24 41.501,-24 41.501,-24 114.922,-24 114.922,-24 120.922,-24 126.922,-30 126.922,-36 126.922,-36 126.922,-48 126.922,-48 126.922,-54 120.922,-60 114.922,-60"/>
<text text-anchor="middle" x="78.2114" y="-37.8" font-family="Helvetica,sans-Serif" font-size="14.00">raw_json_file</text>
</g>
<!-- import_json&#45;&gt;raw_json_file -->
<g id="edge2" class="edge">
<title>import_json&#45;&gt;raw_json_file</title>
<path fill="none" stroke="black" d="M78.2114,-95.8314C78.2114,-88.131 78.2114,-78.9743 78.2114,-70.4166"/>
<polygon fill="black" stroke="black" points="81.7115,-70.4132 78.2114,-60.4133 74.7115,-70.4133 81.7115,-70.4132"/>
</g>
<!-- json_path -->
<g id="node2" class="node">
<title>json_path</title>
<path fill="#ffffcc" stroke="black" d="M104.429,-204C104.429,-204 51.9941,-204 51.9941,-204 45.9941,-204 39.9941,-198 39.9941,-192 39.9941,-192 39.9941,-180 39.9941,-180 39.9941,-174 45.9941,-168 51.9941,-168 51.9941,-168 104.429,-168 104.429,-168 110.429,-168 116.429,-174 116.429,-180 116.429,-180 116.429,-192 116.429,-192 116.429,-198 110.429,-204 104.429,-204"/>
<text text-anchor="middle" x="78.2114" y="-181.8" font-family="Helvetica,sans-Serif" font-size="14.00">json_path</text>
</g>
<!-- json_path&#45;&gt;import_json -->
<g id="edge1" class="edge">
<title>json_path&#45;&gt;import_json</title>
<path fill="none" stroke="black" d="M78.2114,-167.831C78.2114,-160.131 78.2114,-150.974 78.2114,-142.417"/>
<polygon fill="black" stroke="black" points="81.7115,-142.413 78.2114,-132.413 74.7115,-142.413 81.7115,-142.413"/>
</g>
<!-- json_path_inflow -->
<g id="node4" class="node">
<title>json_path_inflow</title>
<ellipse fill="none" stroke="black" cx="78.2114" cy="-251" rx="7" ry="7"/>
</g>
<!-- json_path_inflow&#45;&gt;json_path -->
<g id="edge3" class="edge">
<title>json_path_inflow&#45;&gt;json_path</title>
<path fill="none" stroke="black" d="M78.2114,-243.796C78.2114,-236.582 78.2114,-225.016 78.2114,-214.12"/>
<polygon fill="black" stroke="black" points="81.7115,-214.041 78.2114,-204.041 74.7115,-214.041 81.7115,-214.041"/>
</g>
</g>
</svg>
