<?xml version="1.0" encoding="UTF-8" standalone="no"?>
<!DOCTYPE svg PUBLIC "-//W3C//DTD SVG 1.1//EN"
 "http://www.w3.org/Graphics/SVG/1.1/DTD/svg11.dtd">
<!-- Generated by graphviz version 2.39.20160823.1445 (20160823.1445)
 -->
<!-- Title: yw_data_view Pages: 1 -->
<svg width="214pt" height="514pt"
 viewBox="0.00 0.00 214.00 514.00" xmlns="http://www.w3.org/2000/svg" xmlns:xlink="http://www.w3.org/1999/xlink">
<g id="graph0" class="graph" transform="scale(1 1) rotate(0) translate(4 510)">
<title>yw_data_view</title>
<polygon fill="white" stroke="transparent" points="-4,4 -4,-510 210,-510 210,4 -4,4"/>
<text text-anchor="middle" x="103" y="-487.6" font-family="Courier,monospace" font-size="18.00">OpenRefine2YW</text>
<g id="clust1" class="cluster">
<title>cluster_workflow</title>
<polygon fill="none" stroke="black" stroke-width="2" points="8,-62 8,-418 198,-418 198,-62 8,-62"/>
</g>
<g id="clust2" class="cluster">
<title>cluster_workflow_inner</title>
<polygon fill="none" stroke="white" stroke-width="2" points="16,-70 16,-410 190,-410 190,-70 16,-70"/>
</g>
<g id="clust3" class="cluster">
<title>cluster_inflows</title>
<polygon fill="none" stroke="white" stroke-width="2" points="80,-426 80,-472 126,-472 126,-426 80,-426"/>
</g>
<g id="clust4" class="cluster">
<title>cluster_inflows_inner</title>
<polygon fill="none" stroke="white" stroke-width="2" points="88,-434 88,-464 118,-464 118,-434 88,-434"/>
</g>
<g id="clust5" class="cluster">
<title>cluster_outflows</title>
<polygon fill="none" stroke="white" stroke-width="2" points="80,-8 80,-54 126,-54 126,-8 80,-8"/>
</g>
<g id="clust6" class="cluster">
<title>cluster_outflows_inner</title>
<polygon fill="none" stroke="white" stroke-width="2" points="88,-16 88,-46 118,-46 118,-16 88,-16"/>
</g>
<!-- import_json -->
<g id="node1" class="node">
<title>import_json</title>
<polygon fill="#ccffcc" stroke="black" points="157.416,-330 48.5842,-330 48.5842,-294 157.416,-294 157.416,-330"/>
<text text-anchor="middle" x="103" y="-307.8" font-family="Courier,monospace" font-size="14.00">import_json</text>
</g>
<!-- raw_json_file -->
<g id="node4" class="node">
<title>raw_json_file</title>
<path fill="#ffffcc" stroke="black" d="M139.71,-258C139.71,-258 66.2896,-258 66.2896,-258 60.2896,-258 54.2896,-252 54.2896,-246 54.2896,-246 54.2896,-234 54.2896,-234 54.2896,-228 60.2896,-222 66.2896,-222 66.2896,-222 139.71,-222 139.71,-222 145.71,-222 151.71,-228 151.71,-234 151.71,-234 151.71,-246 151.71,-246 151.71,-252 145.71,-258 139.71,-258"/>
<text text-anchor="middle" x="103" y="-235.8" font-family="Helvetica,sans-Serif" font-size="14.00">raw_json_file</text>
</g>
<!-- import_json&#45;&gt;raw_json_file -->
<g id="edge3" class="edge">
<title>import_json&#45;&gt;raw_json_file</title>
<path fill="none" stroke="black" d="M103,-293.831C103,-286.131 103,-276.974 103,-268.417"/>
<polygon fill="black" stroke="black" points="106.5,-268.413 103,-258.413 99.5001,-268.413 106.5,-268.413"/>
</g>
<!-- extract_operation -->
<g id="node2" class="node">
<title>extract_operation</title>
<polygon fill="#ccffcc" stroke="black" points="182.323,-186 23.6767,-186 23.6767,-150 182.323,-150 182.323,-186"/>
<text text-anchor="middle" x="103" y="-163.8" font-family="Courier,monospace" font-size="14.00">extract_operation</text>
</g>
<!-- operation_target -->
<g id="node5" class="node">
<title>operation_target</title>
<path fill="#ffffcc" stroke="black" d="M149.965,-114C149.965,-114 56.0352,-114 56.0352,-114 50.0352,-114 44.0352,-108 44.0352,-102 44.0352,-102 44.0352,-90 44.0352,-90 44.0352,-84 50.0352,-78 56.0352,-78 56.0352,-78 149.965,-78 149.965,-78 155.965,-78 161.965,-84 161.965,-90 161.965,-90 161.965,-102 161.965,-102 161.965,-108 155.965,-114 149.965,-114"/>
<text text-anchor="middle" x="103" y="-91.8" font-family="Helvetica,sans-Serif" font-size="14.00">operation_target</text>
</g>
<!-- extract_operation&#45;&gt;operation_target -->
<g id="edge4" class="edge">
<title>extract_operation&#45;&gt;operation_target</title>
<path fill="none" stroke="black" d="M103,-149.831C103,-142.131 103,-132.974 103,-124.417"/>
<polygon fill="black" stroke="black" points="106.5,-124.413 103,-114.413 99.5001,-124.413 106.5,-124.413"/>
</g>
<!-- json_path -->
<g id="node3" class="node">
<title>json_path</title>
<path fill="#ffffcc" stroke="black" d="M129.217,-402C129.217,-402 76.7827,-402 76.7827,-402 70.7827,-402 64.7827,-396 64.7827,-390 64.7827,-390 64.7827,-378 64.7827,-378 64.7827,-372 70.7827,-366 76.7827,-366 76.7827,-366 129.217,-366 129.217,-366 135.217,-366 141.217,-372 141.217,-378 141.217,-378 141.217,-390 141.217,-390 141.217,-396 135.217,-402 129.217,-402"/>
<text text-anchor="middle" x="103" y="-379.8" font-family="Helvetica,sans-Serif" font-size="14.00">json_path</text>
</g>
<!-- json_path&#45;&gt;import_json -->
<g id="edge2" class="edge">
<title>json_path&#45;&gt;import_json</title>
<path fill="none" stroke="black" d="M103,-365.831C103,-358.131 103,-348.974 103,-340.417"/>
<polygon fill="black" stroke="black" points="106.5,-340.413 103,-330.413 99.5001,-340.413 106.5,-340.413"/>
</g>
<!-- raw_json_file&#45;&gt;extract_operation -->
<g id="edge1" class="edge">
<title>raw_json_file&#45;&gt;extract_operation</title>
<path fill="none" stroke="black" d="M103,-221.831C103,-214.131 103,-204.974 103,-196.417"/>
<polygon fill="black" stroke="black" points="106.5,-196.413 103,-186.413 99.5001,-196.413 106.5,-196.413"/>
</g>
<!-- operation_target_outflow -->
<g id="node7" class="node">
<title>operation_target_outflow</title>
<ellipse fill="none" stroke="black" cx="103" cy="-31" rx="7" ry="7"/>
</g>
<!-- operation_target&#45;&gt;operation_target_outflow -->
<g id="edge6" class="edge">
<title>operation_target&#45;&gt;operation_target_outflow</title>
<path fill="none" stroke="black" d="M103,-77.8939C103,-68.5967 103,-57.3301 103,-48.1707"/>
<polygon fill="black" stroke="black" points="106.5,-48.0024 103,-38.0024 99.5001,-48.0025 106.5,-48.0024"/>
</g>
<!-- json_path_inflow -->
<g id="node6" class="node">
<title>json_path_inflow</title>
<ellipse fill="none" stroke="black" cx="103" cy="-449" rx="7" ry="7"/>
</g>
<!-- json_path_inflow&#45;&gt;json_path -->
<g id="edge5" class="edge">
<title>json_path_inflow&#45;&gt;json_path</title>
<path fill="none" stroke="black" d="M103,-441.796C103,-434.582 103,-423.016 103,-412.12"/>
<polygon fill="black" stroke="black" points="106.5,-412.041 103,-402.041 99.5001,-412.041 106.5,-412.041"/>
</g>
</g>
</svg>
